<?xml version="1.0" standalone="no"?>
<!DOCTYPE svg PUBLIC "-//W3C//DTD SVG 20010904//EN"
 "http://www.w3.org/TR/2001/REC-SVG-20010904/DTD/svg10.dtd">
<svg version="1.0" xmlns="http://www.w3.org/2000/svg"
 width="560.000000pt" height="560.000000pt" viewBox="0 0 560.000000 560.000000"
 preserveAspectRatio="xMidYMid meet">
<metadata>
Created by potrace 1.11, written by Peter Selinger 2001-2013
</metadata>
<g transform="translate(0.000000,560.000000) scale(0.100000,-0.100000)"
fill="#000000" stroke="none">
<path d="M2580 5129 c-358 -32 -748 -167 -1055 -367 -268 -174 -544 -455 -709
-722 -430 -694 -471 -1558 -109 -2284 149 -297 367 -568 628 -779 644 -520
1518 -657 2305 -360 533 201 994 620 1253 1139 327 656 327 1432 0 2088 -149
297 -367 568 -628 779 -470 379 -1072 560 -1685 506z m525 -492 c403 -75 730
-245 1009 -523 283 -284 454 -619 527 -1034 9 -46 14 -154 14 -280 0 -214 -7
-276 -52 -455 -163 -656 -692 -1185 -1348 -1348 -179 -45 -241 -52 -455 -52
-214 0 -276 7 -455 52 -656 163 -1185 692 -1348 1348 -45 179 -52 241 -52 455
0 214 7 276 52 455 145 585 585 1076 1153 1288 144 54 266 82 475 111 65 9
404 -3 480 -17z"/>
<path d="M2800 3503 l0 -698 -497 -498 -498 -498 65 -61 c180 -167 442 -290
710 -334 144 -24 411 -14 546 20 526 132 917 519 1039 1030 97 404 17 817
-223 1156 -75 105 -236 263 -343 337 -211 145 -503 243 -726 243 l-73 0 0
-697z"/>
</g>
</svg>
